{"asset":{"version":"2.0"},"scenes":[{"nodes":[0]}],"nodes":[{"name":"::rootNode::","children":[1,2]},{"name":"Extrusion <82 拉伸>","mesh":0,"extras":{"UniqueId":"ba1e41bd-fe62-11d3-883b-0000863de970-00000052","Properties":{"拉伸终点":"457.00","拉伸起点":"380.80","可见":"是","工作平面":"标高 : Ref. Level","子类别":"无","材质":"Laminate - Ivory, Matte","实心/空心":"实心"}}},{"name":"Extrusion <614 拉伸>","mesh":1,"extras":{"UniqueId":"1d5c5d2b-fe65-11d3-883b-0000863de970-00000266","Properties":{"拉伸终点":"380.80","拉伸起点":"0.00","可见":"是","工作平面":"标高 : Ref. Level","子类别":"无","材质":"Wood - Birch","实心/空心":"实心"}}}],"meshes":[{"primitives":[{"attributes":{"POSITION":0},"indices":1,"material":0,"mode":4}]},{"primitives":[{"attributes":{"POSITION":2},"indices":3,"material":1,"mode":4}]}],"buffers":[{"uri":"NewProject.bin","byteLength":13752}],"bufferViews":[{"buffer":0,"byteOffset":0,"byteLength":864,"target":34962},{"buffer":0,"byteOffset":864,"byteLength":1296,"target":34963},{"buffer":0,"byteOffset":2160,"byteLength":4440,"target":34962},{"buffer":0,"byteOffset":6600,"byteLength":7152,"target":34963}],"accessors":[{"bufferView":0,"byteOffset":0,"componentType":5126,"count":72,"type":"VEC3","max":[766.0,533.0,457.0],"min":[4.0,-229.0,381.0]},{"bufferView":1,"byteOffset":0,"componentType":5125,"count":324,"type":"SCALAR","max":[71.0],"min":[0.0]},{"bufferView":2,"byteOffset":0,"componentType":5126,"count":370,"type":"VEC3","max":[728.0,495.0,381.0],"min":[42.0,-190.0,0.0]},{"bufferView":3,"byteOffset":0,"componentType":5125,"count":1788,"type":"SCALAR","max":[369.0],"min":[0.0]}],"materials":[{"name":"Laminate - Ivory, Matte","pbrMetallicRoughness":{"baseColorFactor":[0.968627453,0.968627453,0.9372549,1.0],"metallicFactor":0.0,"roughnessFactor":1.0}},{"name":"Wood - Birch","pbrMetallicRoughness":{"baseColorFactor":[0.8784314,0.698039234,0.494117647,1.0],"metallicFactor":0.0,"roughnessFactor":1.0}}]}